<svg width="91" height="35" viewBox="0 0 91 35" fill="none" xmlns="http://www.w3.org/2000/svg">
<rect x="19.3763" y="7.08301" width="71" height="27" rx="13.5" fill="#1A1A1A"/>
<rect x="19.3763" y="7.08301" width="71" height="27" rx="13.5" stroke="#1F1F1F"/>
<path d="M27.4319 24.583L30.7859 15.483H31.9429L35.2839 24.583H34.1269L33.2949 22.243H29.4209L28.5759 24.583H27.4319ZM29.7459 21.359H32.9699L31.3579 16.861L29.7459 21.359ZM36.5717 24.583V18.135H37.5597L37.6247 19.292C37.8327 18.8847 38.1317 18.564 38.5217 18.33C38.9117 18.096 39.3537 17.979 39.8477 17.979C40.6103 17.979 41.217 18.213 41.6677 18.681C42.127 19.1403 42.3567 19.851 42.3567 20.813V24.583H41.2647V20.93C41.2647 20.2627 41.126 19.76 40.8487 19.422C40.5713 19.084 40.1553 18.915 39.6007 18.915C39.046 18.915 38.5823 19.1187 38.2097 19.526C37.8457 19.9247 37.6637 20.4967 37.6637 21.242V24.583H36.5717ZM46.1688 24.739C45.7268 24.739 45.3238 24.6653 44.9598 24.518C44.5958 24.3707 44.3055 24.1497 44.0888 23.855C43.8808 23.5517 43.7768 23.1833 43.7768 22.75C43.7768 22.2473 43.9068 21.8487 44.1668 21.554C44.4268 21.2507 44.7692 21.034 45.1938 20.904C45.6272 20.7653 46.0908 20.696 46.5848 20.696H48.3268C48.3268 20.2453 48.2488 19.89 48.0928 19.63C47.9455 19.37 47.7505 19.1837 47.5078 19.071C47.2652 18.9583 46.9965 18.902 46.7018 18.902C46.2772 18.902 45.9088 19.006 45.5968 19.214C45.2935 19.4133 45.1028 19.7253 45.0248 20.15H43.9068C43.9502 19.682 44.1062 19.2877 44.3748 18.967C44.6435 18.6463 44.9815 18.4037 45.3888 18.239C45.8048 18.0657 46.2425 17.979 46.7018 17.979C47.3518 17.979 47.8762 18.1003 48.2748 18.343C48.6735 18.577 48.9638 18.8933 49.1458 19.292C49.3278 19.6907 49.4188 20.1327 49.4188 20.618V22.594C49.4188 22.9147 49.4578 23.1573 49.5358 23.322C49.6138 23.4867 49.8132 23.5863 50.1338 23.621V24.583C49.8478 24.583 49.5878 24.5483 49.3538 24.479C49.1198 24.401 48.9205 24.2797 48.7558 24.115C48.5998 23.9417 48.4872 23.7163 48.4178 23.439C48.2012 23.803 47.9022 24.1107 47.5208 24.362C47.1482 24.6133 46.6975 24.739 46.1688 24.739ZM46.3378 23.816C46.7712 23.816 47.1352 23.7077 47.4298 23.491C47.7245 23.2657 47.9455 22.9797 48.0928 22.633C48.2488 22.2863 48.3268 21.9267 48.3268 21.554V21.541H46.6758C46.3725 21.541 46.0865 21.5757 45.8178 21.645C45.5492 21.7057 45.3325 21.8227 45.1678 21.996C45.0032 22.1607 44.9208 22.3947 44.9208 22.698C44.9208 23.088 45.0595 23.374 45.3368 23.556C45.6142 23.7293 45.9478 23.816 46.3378 23.816ZM51.4506 24.583V15.483H52.5426V24.583H51.4506ZM55.0344 27.443L56.4644 24.323L53.6954 18.135H54.8784L57.0104 23.153L59.2724 18.135H60.4034L56.1784 27.443H55.0344ZM64.1041 24.583C63.5147 24.583 63.0511 24.44 62.7131 24.154C62.3751 23.868 62.2061 23.3523 62.2061 22.607V19.058H61.0881V18.135H62.2061V16.588H63.2981V18.135H65.1051V19.058H63.2981V22.607C63.2981 23.0143 63.3804 23.2917 63.5451 23.439C63.7097 23.5777 64.0001 23.647 64.4161 23.647H65.1051V24.583H64.1041ZM67.2464 16.705C67.0297 16.705 66.8477 16.6357 66.7004 16.497C66.5617 16.3497 66.4924 16.1677 66.4924 15.951C66.4924 15.743 66.5617 15.5697 66.7004 15.431C66.8477 15.2923 67.0297 15.223 67.2464 15.223C67.4544 15.223 67.6321 15.2923 67.7794 15.431C67.9267 15.5697 68.0004 15.743 68.0004 15.951C68.0004 16.1677 67.9267 16.3497 67.7794 16.497C67.6321 16.6357 67.4544 16.705 67.2464 16.705ZM66.7004 24.583V18.135H67.7924V24.583H66.7004ZM72.6578 24.739C72.0511 24.739 71.5008 24.6003 71.0068 24.323C70.5214 24.0457 70.1358 23.6557 69.8498 23.153C69.5638 22.6417 69.4208 22.0437 69.4208 21.359C69.4208 20.6917 69.5594 20.1067 69.8368 19.604C70.1141 19.0927 70.4954 18.694 70.9808 18.408C71.4661 18.122 72.0251 17.979 72.6578 17.979C73.4204 17.979 74.0618 18.1783 74.5818 18.577C75.1104 18.9757 75.4441 19.5087 75.5828 20.176H74.4648C74.3781 19.7773 74.1658 19.4697 73.8278 19.253C73.4898 19.0277 73.0954 18.915 72.6448 18.915C72.1854 18.915 71.7998 19.0277 71.4878 19.253C71.1758 19.4783 70.9374 19.7773 70.7728 20.15C70.6168 20.5227 70.5388 20.9257 70.5388 21.359C70.5388 21.8357 70.6298 22.2603 70.8118 22.633C70.9938 23.0057 71.2408 23.296 71.5528 23.504C71.8734 23.712 72.2374 23.816 72.6448 23.816C73.0954 23.816 73.4898 23.7077 73.8278 23.491C74.1658 23.2657 74.3781 22.9493 74.4648 22.542H75.5828C75.4961 22.9753 75.3184 23.3567 75.0498 23.686C74.7811 24.0153 74.4431 24.2753 74.0358 24.466C73.6284 24.648 73.1691 24.739 72.6578 24.739ZM79.5778 24.739C79.0665 24.739 78.6071 24.6523 78.1998 24.479C77.7925 24.297 77.4631 24.0457 77.2118 23.725C76.9691 23.3957 76.8175 23.01 76.7568 22.568H77.8748C77.9441 22.906 78.1218 23.2007 78.4078 23.452C78.7025 23.6947 79.0968 23.816 79.5908 23.816C80.0501 23.816 80.3881 23.7207 80.6048 23.53C80.8215 23.3307 80.9298 23.0967 80.9298 22.828C80.9298 22.568 80.8648 22.3687 80.7348 22.23C80.6135 22.0913 80.4315 21.9873 80.1888 21.918C79.9548 21.84 79.6645 21.7663 79.3178 21.697C78.9538 21.619 78.5985 21.515 78.2518 21.385C77.9051 21.2463 77.6191 21.06 77.3938 20.826C77.1685 20.592 77.0558 20.2843 77.0558 19.903C77.0558 19.5217 77.1511 19.188 77.3418 18.902C77.5325 18.616 77.8011 18.3907 78.1478 18.226C78.5031 18.0613 78.9191 17.979 79.3958 17.979C80.0805 17.979 80.6395 18.1523 81.0728 18.499C81.5148 18.837 81.7705 19.3223 81.8398 19.955H80.7608C80.7175 19.6257 80.5745 19.37 80.3318 19.188C80.0978 18.9973 79.7815 18.902 79.3828 18.902C78.9928 18.902 78.6895 18.9843 78.4728 19.149C78.2648 19.3137 78.1608 19.5303 78.1608 19.799C78.1608 19.9723 78.2215 20.1197 78.3428 20.241C78.4641 20.3623 78.6375 20.4663 78.8628 20.553C79.0968 20.6397 79.3698 20.7177 79.6818 20.787C80.1151 20.8737 80.5095 20.982 80.8648 21.112C81.2201 21.242 81.5061 21.4327 81.7228 21.684C81.9395 21.9267 82.0478 22.2777 82.0478 22.737C82.0565 23.1183 81.9568 23.4607 81.7488 23.764C81.5495 24.0673 81.2635 24.3057 80.8908 24.479C80.5268 24.6523 80.0891 24.739 79.5778 24.739Z" fill="white"/>
<path d="M2.08421 0.502918C0.789534 0.434045 0.022779 1.92932 0.834684 2.94018L7.92785 11.7706C8.76179 12.8089 10.4343 12.3266 10.5872 11.0037L11.1073 6.51078C11.1226 6.37908 11.1892 6.25866 11.2931 6.17628L14.3131 3.78155C15.3956 2.92326 14.8402 1.18219 13.4607 1.1087L2.08421 0.502918Z" fill="#0A1424" stroke="#0A1424"/>
</svg>
