<svg width="79" height="35" viewBox="0 0 79 35" fill="none" xmlns="http://www.w3.org/2000/svg">
<rect x="0.5" y="6.76221" width="60" height="27" rx="13.5" fill="#1A1A1A"/>
<rect x="0.5" y="6.76221" width="60" height="27" rx="13.5" stroke="#1F1F1F"/>
<path d="M9.46102 24.2622V15.1622H10.553V23.3912H14.791V24.2622H9.46102ZM18.3711 24.4182C17.9291 24.4182 17.5261 24.3445 17.1621 24.1972C16.7981 24.0499 16.5078 23.8289 16.2911 23.5342C16.0831 23.2309 15.9791 22.8625 15.9791 22.4292C15.9791 21.9265 16.1091 21.5279 16.3691 21.2332C16.6291 20.9299 16.9714 20.7132 17.3961 20.5832C17.8294 20.4445 18.2931 20.3752 18.7871 20.3752H20.5291C20.5291 19.9245 20.4511 19.5692 20.2951 19.3092C20.1478 19.0492 19.9528 18.8629 19.7101 18.7502C19.4674 18.6375 19.1988 18.5812 18.9041 18.5812C18.4794 18.5812 18.1111 18.6852 17.7991 18.8932C17.4958 19.0925 17.3051 19.4045 17.2271 19.8292H16.1091C16.1524 19.3612 16.3084 18.9669 16.5771 18.6462C16.8458 18.3255 17.1838 18.0829 17.5911 17.9182C18.0071 17.7449 18.4448 17.6582 18.9041 17.6582C19.5541 17.6582 20.0784 17.7795 20.4771 18.0222C20.8758 18.2562 21.1661 18.5725 21.3481 18.9712C21.5301 19.3699 21.6211 19.8119 21.6211 20.2972V22.2732C21.6211 22.5939 21.6601 22.8365 21.7381 23.0012C21.8161 23.1659 22.0154 23.2655 22.3361 23.3002V24.2622C22.0501 24.2622 21.7901 24.2275 21.5561 24.1582C21.3221 24.0802 21.1228 23.9589 20.9581 23.7942C20.8021 23.6209 20.6894 23.3955 20.6201 23.1182C20.4034 23.4822 20.1044 23.7899 19.7231 24.0412C19.3504 24.2925 18.8998 24.4182 18.3711 24.4182ZM18.5401 23.4952C18.9734 23.4952 19.3374 23.3869 19.6321 23.1702C19.9268 22.9449 20.1478 22.6589 20.2951 22.3122C20.4511 21.9655 20.5291 21.6059 20.5291 21.2332V21.2202H18.8781C18.5748 21.2202 18.2888 21.2549 18.0201 21.3242C17.7514 21.3849 17.5348 21.5019 17.3701 21.6752C17.2054 21.8399 17.1231 22.0739 17.1231 22.3772C17.1231 22.7672 17.2618 23.0532 17.5391 23.2352C17.8164 23.4085 18.1501 23.4952 18.5401 23.4952ZM26.0189 24.4182C25.5162 24.4182 25.0742 24.3185 24.6929 24.1192C24.3202 23.9112 24.0299 23.5992 23.8219 23.1832C23.6139 22.7585 23.5099 22.2255 23.5099 21.5842V17.8142H24.6019V21.4672C24.6019 22.1345 24.7405 22.6372 25.0179 22.9752C25.2952 23.3132 25.7112 23.4822 26.2659 23.4822C26.8205 23.4822 27.2799 23.2829 27.6439 22.8842C28.0165 22.4769 28.2029 21.9005 28.2029 21.1552V17.8142H29.2949V24.2622H28.3069L28.2419 23.1052C28.0339 23.5125 27.7349 23.8332 27.3449 24.0672C26.9549 24.3012 26.5129 24.4182 26.0189 24.4182ZM31.0923 24.2622V17.8142H32.0803L32.1453 18.9712C32.3533 18.5639 32.6523 18.2432 33.0423 18.0092C33.4323 17.7752 33.8743 17.6582 34.3683 17.6582C35.131 17.6582 35.7376 17.8922 36.1883 18.3602C36.6476 18.8195 36.8773 19.5302 36.8773 20.4922V24.2622H35.7853V20.6092C35.7853 19.9419 35.6466 19.4392 35.3693 19.1012C35.092 18.7632 34.676 18.5942 34.1213 18.5942C33.5666 18.5942 33.103 18.7979 32.7303 19.2052C32.3663 19.6039 32.1843 20.1759 32.1843 20.9212V24.2622H31.0923ZM41.5085 24.4182C40.9018 24.4182 40.3515 24.2795 39.8575 24.0022C39.3721 23.7249 38.9865 23.3349 38.7005 22.8322C38.4145 22.3209 38.2715 21.7229 38.2715 21.0382C38.2715 20.3709 38.4101 19.7859 38.6875 19.2832C38.9648 18.7719 39.3461 18.3732 39.8315 18.0872C40.3168 17.8012 40.8758 17.6582 41.5085 17.6582C42.2711 17.6582 42.9125 17.8575 43.4325 18.2562C43.9611 18.6549 44.2948 19.1879 44.4335 19.8552H43.3155C43.2288 19.4565 43.0165 19.1489 42.6785 18.9322C42.3405 18.7069 41.9461 18.5942 41.4955 18.5942C41.0361 18.5942 40.6505 18.7069 40.3385 18.9322C40.0265 19.1575 39.7881 19.4565 39.6235 19.8292C39.4675 20.2019 39.3895 20.6049 39.3895 21.0382C39.3895 21.5149 39.4805 21.9395 39.6625 22.3122C39.8445 22.6849 40.0915 22.9752 40.4035 23.1832C40.7241 23.3912 41.0881 23.4952 41.4955 23.4952C41.9461 23.4952 42.3405 23.3869 42.6785 23.1702C43.0165 22.9449 43.2288 22.6285 43.3155 22.2212H44.4335C44.3468 22.6545 44.1691 23.0359 43.9005 23.3652C43.6318 23.6945 43.2938 23.9545 42.8865 24.1452C42.4791 24.3272 42.0198 24.4182 41.5085 24.4182ZM45.9585 24.2622V15.1622H47.0505V18.9192C47.2672 18.5205 47.5749 18.2129 47.9735 17.9962C48.3722 17.7709 48.8055 17.6582 49.2735 17.6582C50.0189 17.6582 50.6169 17.8922 51.0675 18.3602C51.5182 18.8195 51.7435 19.5302 51.7435 20.4922V24.2622H50.6645V20.6092C50.6645 19.9419 50.5259 19.4392 50.2485 19.1012C49.9799 18.7632 49.5769 18.5942 49.0395 18.5942C48.4762 18.5942 48.0039 18.7979 47.6225 19.2052C47.2412 19.6039 47.0505 20.1759 47.0505 20.9212V24.2622H45.9585Z" fill="white"/>
<path d="M78.3109 2.72261C78.9335 1.58533 77.9175 0.246862 76.6548 0.541168L65.6241 3.11274C64.3271 3.41503 64.0379 5.13147 65.1642 5.84204L68.9892 8.25578C69.1013 8.32652 69.181 8.43876 69.2103 8.56805L70.0617 12.327C70.3668 13.6744 72.1767 13.9275 72.8402 12.7157L78.3109 2.72261Z" fill="#0A1424" stroke="#0A1424"/>
</svg>
