<svg width="76" height="35" viewBox="0 0 76 35" fill="none" xmlns="http://www.w3.org/2000/svg">
<rect x="0.5" y="6.76221" width="57" height="27" rx="13.5" fill="#1A1A1A"/>
<rect x="0.5" y="6.76221" width="57" height="27" rx="13.5" stroke="#1F1F1F"/>
<path d="M13.3646 24.4182C12.6712 24.4182 12.0472 24.3012 11.4926 24.0672C10.9379 23.8245 10.4656 23.4909 10.0756 23.0662C9.68555 22.6415 9.38655 22.1432 9.17855 21.5712C8.97922 20.9992 8.87955 20.3795 8.87955 19.7122C8.87955 19.0449 8.97922 18.4252 9.17855 17.8532C9.38655 17.2812 9.68555 16.7829 10.0756 16.3582C10.4656 15.9335 10.9336 15.6042 11.4796 15.3702C12.0342 15.1275 12.6626 15.0062 13.3646 15.0062C14.0579 15.0062 14.6776 15.1232 15.2236 15.3572C15.7782 15.5825 16.2506 15.9075 16.6406 16.3322C17.0306 16.7482 17.3296 17.2465 17.5376 17.8272C17.7456 18.3992 17.8496 19.0275 17.8496 19.7122C17.8496 20.3969 17.7456 21.0295 17.5376 21.6102C17.3296 22.1822 17.0306 22.6805 16.6406 23.1052C16.2506 23.5212 15.7782 23.8462 15.2236 24.0802C14.6776 24.3055 14.0579 24.4182 13.3646 24.4182ZM13.3646 23.4562C14.0752 23.4562 14.6819 23.2959 15.1846 22.9752C15.6872 22.6545 16.0686 22.2125 16.3286 21.6492C16.5972 21.0859 16.7316 20.4402 16.7316 19.7122C16.7316 18.9669 16.5972 18.3169 16.3286 17.7622C16.0686 17.1989 15.6872 16.7612 15.1846 16.4492C14.6819 16.1372 14.0752 15.9812 13.3646 15.9812C12.6626 15.9812 12.0602 16.1415 11.5576 16.4622C11.0549 16.7829 10.6692 17.2249 10.4006 17.7882C10.1319 18.3429 9.99755 18.9842 9.99755 19.7122C9.99755 20.4315 10.1319 21.0772 10.4006 21.6492C10.6692 22.2125 11.0549 22.6545 11.5576 22.9752C12.0602 23.2959 12.6626 23.4562 13.3646 23.4562ZM19.3599 24.2622V17.8142H20.3479L20.4389 19.0492C20.6382 18.6245 20.9416 18.2865 21.3489 18.0352C21.7562 17.7839 22.2589 17.6582 22.8569 17.6582V18.8022H22.5579C21.8472 18.8022 21.3186 18.9929 20.9719 19.3742C20.6252 19.7555 20.4519 20.3015 20.4519 21.0122V24.2622H19.3599ZM26.7663 24.4182C26.1077 24.4182 25.54 24.2665 25.0633 23.9632C24.5867 23.6599 24.2183 23.2525 23.9583 22.7412C23.6983 22.2299 23.5683 21.6579 23.5683 21.0252C23.5683 20.4012 23.694 19.8335 23.9453 19.3222C24.2053 18.8109 24.5737 18.4079 25.0503 18.1132C25.527 17.8099 26.1033 17.6582 26.7793 17.6582C27.308 17.6582 27.776 17.7665 28.1833 17.9832C28.5907 18.1999 28.907 18.5032 29.1323 18.8932V15.1622H30.2243V24.2622H29.2363L29.1323 23.1962C28.9243 23.5082 28.6253 23.7899 28.2353 24.0412C27.8453 24.2925 27.3557 24.4182 26.7663 24.4182ZM26.8833 23.4692C27.36 23.4692 27.763 23.3609 28.0923 23.1442C28.4217 22.9189 28.6687 22.6242 28.8333 22.2602C29.0067 21.8875 29.0933 21.4802 29.0933 21.0382C29.0933 20.5702 29.0067 20.1542 28.8333 19.7902C28.66 19.4262 28.4087 19.1402 28.0793 18.9322C27.75 18.7155 27.3513 18.6072 26.8833 18.6072C26.4673 18.6072 26.0947 18.7069 25.7653 18.9062C25.436 19.1055 25.1717 19.3872 24.9723 19.7512C24.7817 20.1065 24.6863 20.5355 24.6863 21.0382C24.6863 21.5409 24.786 21.9742 24.9853 22.3382C25.1847 22.7022 25.449 22.9839 25.7783 23.1832C26.1163 23.3739 26.4847 23.4692 26.8833 23.4692ZM34.9034 24.4182C34.3054 24.4182 33.7638 24.2795 33.2784 24.0022C32.8018 23.7249 32.4248 23.3349 32.1474 22.8322C31.8701 22.3209 31.7314 21.7229 31.7314 21.0382C31.7314 20.3622 31.8614 19.7729 32.1214 19.2702C32.3901 18.7589 32.7628 18.3645 33.2394 18.0872C33.7248 17.8012 34.2881 17.6582 34.9294 17.6582C35.5361 17.6582 36.0648 17.7925 36.5154 18.0612C36.9661 18.3299 37.3171 18.6939 37.5684 19.1532C37.8284 19.6039 37.9584 20.1109 37.9584 20.6742C37.9584 20.7955 37.9584 20.8909 37.9584 20.9602C37.9584 21.0295 37.9541 21.1379 37.9454 21.2852H32.8104C32.8364 21.7099 32.9361 22.0912 33.1094 22.4292C33.2914 22.7585 33.5341 23.0185 33.8374 23.2092C34.1494 23.3999 34.5048 23.4952 34.9034 23.4952C35.3541 23.4952 35.7311 23.3912 36.0344 23.1832C36.3378 22.9752 36.5588 22.6935 36.6974 22.3382H37.7764C37.6638 22.7369 37.4774 23.0922 37.2174 23.4042C36.9574 23.7162 36.6324 23.9632 36.2424 24.1452C35.8611 24.3272 35.4148 24.4182 34.9034 24.4182ZM32.8234 20.4402H36.8794C36.8534 19.8595 36.6541 19.4045 36.2814 19.0752C35.9088 18.7459 35.4494 18.5812 34.9034 18.5812C34.3834 18.5812 33.9198 18.7415 33.5124 19.0622C33.1138 19.3742 32.8841 19.8335 32.8234 20.4402ZM39.4058 24.2622V17.8142H40.3938L40.4848 19.0492C40.6841 18.6245 40.9875 18.2865 41.3948 18.0352C41.8021 17.7839 42.3048 17.6582 42.9028 17.6582V18.8022H42.6038C41.8931 18.8022 41.3645 18.9929 41.0178 19.3742C40.6711 19.7555 40.4978 20.3015 40.4978 21.0122V24.2622H39.4058ZM46.5984 24.4182C46.0871 24.4182 45.6278 24.3315 45.2204 24.1582C44.8131 23.9762 44.4838 23.7249 44.2324 23.4042C43.9898 23.0749 43.8381 22.6892 43.7774 22.2472H44.8954C44.9648 22.5852 45.1424 22.8799 45.4284 23.1312C45.7231 23.3739 46.1174 23.4952 46.6114 23.4952C47.0708 23.4952 47.4088 23.3999 47.6254 23.2092C47.8421 23.0099 47.9504 22.7759 47.9504 22.5072C47.9504 22.2472 47.8854 22.0479 47.7554 21.9092C47.6341 21.7705 47.4521 21.6665 47.2094 21.5972C46.9754 21.5192 46.6851 21.4455 46.3384 21.3762C45.9744 21.2982 45.6191 21.1942 45.2724 21.0642C44.9258 20.9255 44.6398 20.7392 44.4144 20.5052C44.1891 20.2712 44.0764 19.9635 44.0764 19.5822C44.0764 19.2009 44.1718 18.8672 44.3624 18.5812C44.5531 18.2952 44.8218 18.0699 45.1684 17.9052C45.5238 17.7405 45.9398 17.6582 46.4164 17.6582C47.1011 17.6582 47.6601 17.8315 48.0934 18.1782C48.5354 18.5162 48.7911 19.0015 48.8604 19.6342H47.7814C47.7381 19.3049 47.5951 19.0492 47.3524 18.8672C47.1184 18.6765 46.8021 18.5812 46.4034 18.5812C46.0134 18.5812 45.7101 18.6635 45.4934 18.8282C45.2854 18.9929 45.1814 19.2095 45.1814 19.4782C45.1814 19.6515 45.2421 19.7989 45.3634 19.9202C45.4848 20.0415 45.6581 20.1455 45.8834 20.2322C46.1174 20.3189 46.3904 20.3969 46.7024 20.4662C47.1358 20.5529 47.5301 20.6612 47.8854 20.7912C48.2408 20.9212 48.5268 21.1119 48.7434 21.3632C48.9601 21.6059 49.0684 21.9569 49.0684 22.4162C49.0771 22.7975 48.9774 23.1399 48.7694 23.4432C48.5701 23.7465 48.2841 23.9849 47.9114 24.1582C47.5474 24.3315 47.1098 24.4182 46.5984 24.4182Z" fill="white"/>
<path d="M75.311 2.72261C75.9335 1.58533 74.9175 0.246862 73.6548 0.541168L62.6241 3.11274C61.3271 3.41503 61.0379 5.13147 62.1642 5.84204L65.9892 8.25578C66.1013 8.32652 66.181 8.43876 66.2103 8.56805L67.0618 12.327C67.3669 13.6744 69.1768 13.9275 69.8402 12.7157L75.311 2.72261Z" fill="#0A1424" stroke="#0A1424"/>
</svg>
