<svg width="95" height="35" viewBox="0 0 95 35" fill="none" xmlns="http://www.w3.org/2000/svg">
<rect x="19.1249" y="7.42676" width="75" height="27" rx="13.5" fill="#1A1A1A"/>
<rect x="19.1249" y="7.42676" width="75" height="27" rx="13.5" stroke="#1F1F1F"/>
<path d="M27.7402 24.9268V15.8268H30.7432C31.3845 15.8268 31.9349 15.9221 32.3942 16.1128C32.8535 16.3034 33.2089 16.5894 33.4602 16.9708C33.7115 17.3521 33.8372 17.8288 33.8372 18.4008C33.8372 18.9901 33.7029 19.4754 33.4342 19.8568C33.1742 20.2381 32.8102 20.5198 32.3422 20.7018C31.8829 20.8838 31.3499 20.9748 30.7432 20.9748H28.8322V24.9268H27.7402ZM28.8322 20.0518H30.7172C31.4452 20.0518 31.9609 19.9131 32.2642 19.6358C32.5675 19.3498 32.7192 18.9381 32.7192 18.4008C32.7192 17.8548 32.5675 17.4431 32.2642 17.1658C31.9609 16.8798 31.4452 16.7368 30.7172 16.7368H28.8322V20.0518ZM37.0438 25.0828C36.6018 25.0828 36.1988 25.0091 35.8348 24.8618C35.4708 24.7144 35.1805 24.4934 34.9638 24.1988C34.7558 23.8954 34.6518 23.5271 34.6518 23.0938C34.6518 22.5911 34.7818 22.1924 35.0418 21.8978C35.3018 21.5944 35.6442 21.3778 36.0688 21.2478C36.5022 21.1091 36.9658 21.0398 37.4598 21.0398H39.2018C39.2018 20.5891 39.1238 20.2338 38.9678 19.9738C38.8205 19.7138 38.6255 19.5274 38.3828 19.4148C38.1402 19.3021 37.8715 19.2458 37.5768 19.2458C37.1522 19.2458 36.7838 19.3498 36.4718 19.5578C36.1685 19.7571 35.9778 20.0691 35.8998 20.4938H34.7818C34.8252 20.0258 34.9812 19.6314 35.2498 19.3108C35.5185 18.9901 35.8565 18.7474 36.2638 18.5828C36.6798 18.4094 37.1175 18.3228 37.5768 18.3228C38.2268 18.3228 38.7512 18.4441 39.1498 18.6868C39.5485 18.9208 39.8388 19.2371 40.0208 19.6358C40.2028 20.0344 40.2938 20.4764 40.2938 20.9618V22.9378C40.2938 23.2584 40.3328 23.5011 40.4108 23.6658C40.4888 23.8304 40.6882 23.9301 41.0088 23.9648V24.9268C40.7228 24.9268 40.4628 24.8921 40.2288 24.8228C39.9948 24.7448 39.7955 24.6234 39.6308 24.4588C39.4748 24.2854 39.3622 24.0601 39.2928 23.7828C39.0762 24.1468 38.7772 24.4544 38.3958 24.7058C38.0232 24.9571 37.5725 25.0828 37.0438 25.0828ZM37.2128 24.1598C37.6462 24.1598 38.0102 24.0514 38.3048 23.8348C38.5995 23.6094 38.8205 23.3234 38.9678 22.9768C39.1238 22.6301 39.2018 22.2704 39.2018 21.8978V21.8848H37.5508C37.2475 21.8848 36.9615 21.9194 36.6928 21.9888C36.4242 22.0494 36.2075 22.1664 36.0428 22.3398C35.8782 22.5044 35.7958 22.7384 35.7958 23.0418C35.7958 23.4318 35.9345 23.7178 36.2118 23.8998C36.4892 24.0731 36.8228 24.1598 37.2128 24.1598ZM42.8372 27.7868L44.2672 24.6668L41.4982 18.4788H42.6812L44.8132 23.4968L47.0752 18.4788H48.2062L43.9812 27.7868H42.8372ZM49.3588 24.9268V18.4788H50.3468L50.4248 19.4148C50.6328 19.0681 50.9101 18.7994 51.2568 18.6088C51.6035 18.4181 51.9935 18.3228 52.4268 18.3228C52.9381 18.3228 53.3758 18.4268 53.7398 18.6348C54.1125 18.8428 54.3985 19.1591 54.5978 19.5838C54.8231 19.1938 55.1308 18.8861 55.5208 18.6608C55.9195 18.4354 56.3485 18.3228 56.8078 18.3228C57.3278 18.3228 57.7741 18.4268 58.1468 18.6348C58.5281 18.8341 58.8228 19.1461 59.0308 19.5708C59.2388 19.9868 59.3428 20.5154 59.3428 21.1568V24.9268H58.2638V21.2738C58.2638 20.6064 58.1295 20.1038 57.8608 19.7658C57.5921 19.4278 57.2065 19.2588 56.7038 19.2588C56.1838 19.2588 55.7505 19.4624 55.4038 19.8698C55.0658 20.2684 54.8968 20.8404 54.8968 21.5858V24.9268H53.8048V21.2738C53.8048 20.6064 53.6705 20.1038 53.4018 19.7658C53.1331 19.4278 52.7475 19.2588 52.2448 19.2588C51.7335 19.2588 51.3045 19.4624 50.9578 19.8698C50.6198 20.2684 50.4508 20.8404 50.4508 21.5858V24.9268H49.3588ZM63.8867 25.0828C63.2887 25.0828 62.747 24.9441 62.2617 24.6668C61.785 24.3894 61.408 23.9994 61.1307 23.4968C60.8534 22.9854 60.7147 22.3874 60.7147 21.7028C60.7147 21.0268 60.8447 20.4374 61.1047 19.9348C61.3734 19.4234 61.746 19.0291 62.2227 18.7518C62.708 18.4658 63.2714 18.3228 63.9127 18.3228C64.5194 18.3228 65.048 18.4571 65.4987 18.7258C65.9494 18.9944 66.3004 19.3584 66.5517 19.8178C66.8117 20.2684 66.9417 20.7754 66.9417 21.3388C66.9417 21.4601 66.9417 21.5554 66.9417 21.6248C66.9417 21.6941 66.9374 21.8024 66.9287 21.9498H61.7937C61.8197 22.3744 61.9194 22.7558 62.0927 23.0938C62.2747 23.4231 62.5174 23.6831 62.8207 23.8738C63.1327 24.0644 63.488 24.1598 63.8867 24.1598C64.3374 24.1598 64.7144 24.0558 65.0177 23.8478C65.321 23.6398 65.542 23.3581 65.6807 23.0028H66.7597C66.647 23.4014 66.4607 23.7568 66.2007 24.0688C65.9407 24.3808 65.6157 24.6278 65.2257 24.8098C64.8444 24.9918 64.398 25.0828 63.8867 25.0828ZM61.8067 21.1048H65.8627C65.8367 20.5241 65.6374 20.0691 65.2647 19.7398C64.892 19.4104 64.4327 19.2458 63.8867 19.2458C63.3667 19.2458 62.903 19.4061 62.4957 19.7268C62.097 20.0388 61.8674 20.4981 61.8067 21.1048ZM68.3891 24.9268V18.4788H69.3771L69.4421 19.6358C69.6501 19.2284 69.9491 18.9078 70.3391 18.6738C70.7291 18.4398 71.1711 18.3228 71.6651 18.3228C72.4277 18.3228 73.0344 18.5568 73.4851 19.0248C73.9444 19.4841 74.1741 20.1948 74.1741 21.1568V24.9268H73.0821V21.2738C73.0821 20.6064 72.9434 20.1038 72.6661 19.7658C72.3887 19.4278 71.9727 19.2588 71.4181 19.2588C70.8634 19.2588 70.3997 19.4624 70.0271 19.8698C69.6631 20.2684 69.4811 20.8404 69.4811 21.5858V24.9268H68.3891ZM78.3892 24.9268C77.7999 24.9268 77.3362 24.7838 76.9982 24.4978C76.6602 24.2118 76.4912 23.6961 76.4912 22.9508V19.4018H75.3732V18.4788H76.4912V16.9318H77.5832V18.4788H79.3902V19.4018H77.5832V22.9508C77.5832 23.3581 77.6655 23.6354 77.8302 23.7828C77.9949 23.9214 78.2852 23.9908 78.7012 23.9908H79.3902V24.9268H78.3892ZM83.3386 25.0828C82.8272 25.0828 82.3679 24.9961 81.9606 24.8228C81.5532 24.6408 81.2239 24.3894 80.9726 24.0688C80.7299 23.7394 80.5782 23.3538 80.5176 22.9118H81.6356C81.7049 23.2498 81.8826 23.5444 82.1686 23.7958C82.4632 24.0384 82.8576 24.1598 83.3516 24.1598C83.8109 24.1598 84.1489 24.0644 84.3656 23.8738C84.5822 23.6744 84.6906 23.4404 84.6906 23.1718C84.6906 22.9118 84.6256 22.7124 84.4956 22.5738C84.3742 22.4351 84.1922 22.3311 83.9496 22.2618C83.7156 22.1838 83.4252 22.1101 83.0786 22.0408C82.7146 21.9628 82.3592 21.8588 82.0126 21.7288C81.6659 21.5901 81.3799 21.4038 81.1546 21.1698C80.9292 20.9358 80.8166 20.6281 80.8166 20.2468C80.8166 19.8654 80.9119 19.5318 81.1026 19.2458C81.2932 18.9598 81.5619 18.7344 81.9086 18.5698C82.2639 18.4051 82.6799 18.3228 83.1566 18.3228C83.8412 18.3228 84.4002 18.4961 84.8336 18.8428C85.2756 19.1808 85.5312 19.6661 85.6006 20.2988H84.5216C84.4782 19.9694 84.3352 19.7138 84.0926 19.5318C83.8586 19.3411 83.5422 19.2458 83.1436 19.2458C82.7536 19.2458 82.4502 19.3281 82.2336 19.4928C82.0256 19.6574 81.9216 19.8741 81.9216 20.1428C81.9216 20.3161 81.9822 20.4634 82.1036 20.5848C82.2249 20.7061 82.3982 20.8101 82.6236 20.8968C82.8576 20.9834 83.1306 21.0614 83.4426 21.1308C83.8759 21.2174 84.2702 21.3258 84.6256 21.4558C84.9809 21.5858 85.2669 21.7764 85.4836 22.0278C85.7002 22.2704 85.8086 22.6214 85.8086 23.0808C85.8172 23.4621 85.7176 23.8044 85.5096 24.1078C85.3102 24.4111 85.0242 24.6494 84.6516 24.8228C84.2876 24.9961 83.8499 25.0828 83.3386 25.0828Z" fill="white"/>
<path d="M2.16347 0.509782C0.874227 0.372756 0.0297148 1.82553 0.787204 2.87778L7.40501 12.0699C8.18306 13.1507 9.87863 12.7572 10.1011 11.4442L10.8573 6.98494C10.8795 6.85423 10.9524 6.73749 11.0605 6.6607L14.2025 4.4285C15.3287 3.62846 14.866 1.86054 13.4922 1.71443L2.16347 0.509782Z" fill="#0A1424" stroke="#0A1424"/>
</svg>
